<svg width="311" height="129" viewBox="0 0 311 129" fill="none" xmlns="http://www.w3.org/2000/svg">
<path d="M309.735 22.9633C311.476 29.4606 308.976 36.8585 302.755 44.7262C296.541 52.5848 286.678 60.8272 273.895 68.9641C248.334 85.2346 211.197 101.021 168.544 112.45C125.891 123.878 85.8367 128.776 55.5651 127.465C40.4262 126.81 27.7634 124.604 18.4528 120.905C9.13145 117.202 3.26692 112.045 1.52596 105.548C-0.21501 99.0503 2.28558 91.6524 8.50654 83.7848C14.7204 75.9262 24.5833 67.6838 37.3664 59.5469C62.9272 43.2764 100.064 27.4902 142.717 16.0613C185.37 4.6325 225.425 -0.264658 255.696 1.04557C270.835 1.70083 283.498 3.90746 292.808 7.60631C302.13 11.3094 307.994 16.4659 309.735 22.9633Z" stroke="#4A3830" stroke-opacity="0.5"/>
</svg>
