<svg width="336" height="181" viewBox="0 0 336 181" fill="none" xmlns="http://www.w3.org/2000/svg">
<path d="M321.735 48.8065C323.476 55.3039 320.976 62.7018 314.755 70.5694C308.541 78.4281 298.678 86.6704 285.895 94.8073C260.334 111.078 223.197 126.864 180.544 138.293C137.891 149.722 97.8367 154.619 67.5651 153.309C52.4262 152.653 39.7634 150.447 30.4528 146.748C21.1314 143.045 15.2669 137.888 13.526 131.391C11.785 124.894 14.2856 117.496 20.5065 109.628C26.7204 101.769 36.5833 93.527 49.3664 85.3901C74.9272 69.1196 112.064 53.3334 154.717 41.9046C197.37 30.4758 237.425 25.5786 267.696 26.8888C282.835 27.5441 295.498 29.7507 304.808 33.4496C314.13 37.1527 319.994 42.3091 321.735 48.8065Z" stroke="#4A3830" stroke-opacity="0.5"/>
<path d="M329.185 69.1438C329.924 75.8296 326.335 82.7648 318.997 89.6025C311.667 96.4323 300.673 103.09 286.807 109.203C259.082 121.425 219.986 131.421 176.096 136.275C132.207 141.13 91.8719 139.921 62.1455 134.053C47.2793 131.118 35.0952 127.024 26.4501 121.961C17.7951 116.892 12.7768 110.909 12.0373 104.224C11.2978 97.5377 14.8872 90.6024 22.2252 83.7648C29.5548 76.935 40.5497 70.277 54.4152 64.1645C82.1405 51.9418 121.236 41.9465 165.126 37.0918C209.016 32.2372 249.35 33.4467 279.077 39.3146C293.943 42.2492 306.127 46.3433 314.772 51.4061C323.427 56.4748 328.445 62.458 329.185 69.1438Z" stroke="#8C7870"/>
</svg>
