<svg width="243" height="95" viewBox="0 0 243 95" fill="none" xmlns="http://www.w3.org/2000/svg">
<path d="M233.246 17.2278C234.493 21.9127 232.708 27.2703 228.207 33.0002C223.713 38.7213 216.573 44.7298 207.307 50.6667C188.781 62.5371 161.857 74.0586 130.927 82.4008C99.9978 90.743 70.9578 94.3159 49.0173 93.36C38.044 92.8819 28.8759 91.2721 22.1421 88.5793C15.3981 85.8824 11.1909 82.1411 9.94379 77.4561C8.69669 72.7712 10.4818 67.4136 14.9827 61.6838C19.4768 55.9626 26.617 49.9542 35.8826 44.0173C54.4088 32.1468 81.3329 20.6253 112.262 12.2831C143.192 3.94092 172.232 0.367993 194.172 1.3239C205.145 1.80199 214.314 3.41181 221.047 6.10461C227.791 8.8015 231.999 12.5429 233.246 17.2278Z" stroke="#4A3830" stroke-opacity="0.5"/>
<path d="M238.646 32.0567C239.175 36.8777 236.607 41.9024 231.297 46.8821C225.996 51.8542 218.037 56.708 207.986 61.1679C187.891 70.0852 159.547 77.3806 127.721 80.9241C95.8946 84.4677 66.6518 83.584 45.1066 79.3029C34.331 77.1618 25.5096 74.1764 19.2572 70.4906C12.9954 66.7993 9.39779 62.4611 8.86803 57.6401C8.33827 52.819 10.907 47.7943 16.2161 42.8146C21.5171 37.8425 29.477 32.9887 39.5272 28.5288C59.6222 19.6115 87.9662 12.3161 119.793 8.7726C151.619 5.22905 180.862 6.11274 202.407 10.3938C213.183 12.5349 222.004 15.5203 228.256 19.2061C234.518 22.8974 238.116 27.2356 238.646 32.0567Z" stroke="#8C7870"/>
</svg>
