<svg width="244" height="133" viewBox="0 0 244 133" fill="none" xmlns="http://www.w3.org/2000/svg">
<path d="M233.246 36.2278C234.493 40.9127 232.708 46.2703 228.207 52.0002C223.713 57.7213 216.573 63.7298 207.307 69.6667C188.781 81.5371 161.857 93.0586 130.927 101.401C99.9978 109.743 70.9578 113.316 49.0173 112.36C38.044 111.882 28.8759 110.272 22.1421 107.579C15.3981 104.882 11.1909 101.141 9.94379 96.4561C8.69669 91.7712 10.4818 86.4136 14.9827 80.6838C19.4768 74.9626 26.617 68.9542 35.8826 63.0173C54.4088 51.1468 81.3329 39.6253 112.262 31.2831C143.192 22.9409 172.232 19.368 194.172 20.3239C205.145 20.802 214.314 22.4118 221.047 25.1046C227.791 27.8015 231.999 31.5429 233.246 36.2278Z" stroke="white" stroke-opacity="0.5"/>
<path d="M238.646 51.0567C239.175 55.8777 236.607 60.9025 231.297 65.8821C225.996 70.8542 218.037 75.708 207.986 80.1679C187.891 89.0852 159.547 96.3806 127.721 99.9241C95.8946 103.468 66.6518 102.584 45.1066 98.3029C34.331 96.1618 25.5096 93.1764 19.2572 89.4906C12.9954 85.7993 9.39779 81.4611 8.86803 76.6401C8.33827 71.819 10.907 66.7943 16.2161 61.8146C21.5171 56.8425 29.477 51.9887 39.5272 47.5288C59.6222 38.6115 87.9662 31.3161 119.793 27.7726C151.619 24.2291 180.862 25.1127 202.407 29.3938C213.183 31.5349 222.004 34.5203 228.256 38.2061C234.518 41.8974 238.116 46.2356 238.646 51.0567Z" stroke="white"/>
</svg>
