<svg width="23" height="44" viewBox="0 0 23 44" fill="none" xmlns="http://www.w3.org/2000/svg">
<path d="M22.4898 43.4878C22.8169 43.1529 23 42.7034 23 42.2353C23 41.7672 22.8169 41.3177 22.4898 40.9828L4.21605 22.2365L22.4898 3.49404C22.8169 3.15917 23 2.70964 23 2.24154C23 1.77344 22.8169 1.3239 22.4898 0.989037C22.3308 0.825748 22.1407 0.695965 21.9308 0.607349C21.7208 0.51873 21.4952 0.473076 21.2673 0.473076C21.0394 0.473076 20.8138 0.51873 20.6038 0.607349C20.3939 0.695965 20.2038 0.825748 20.0448 0.989036L0.612305 20.9278C0.271002 21.2779 0.0799866 21.7476 0.0799866 22.2365C0.0799865 22.7255 0.271002 23.1951 0.612305 23.5453L20.0448 43.484C20.2038 43.6473 20.3939 43.7771 20.6038 43.8657C20.8138 43.9543 21.0394 44 21.2673 44C21.4952 44 21.7208 43.9543 21.9308 43.8657C22.1407 43.7771 22.3308 43.6473 22.4898 43.484L22.4898 43.4878Z" fill="black"/>
</svg>
