<svg width="23" height="44" viewBox="0 0 23 44" fill="none" xmlns="http://www.w3.org/2000/svg">
<path d="M0.510199 0.512213C0.183115 0.847079 0 1.29661 0 1.76471C0 2.23282 0.183115 2.68235 0.510199 3.01721L18.7839 21.7635L0.510199 40.506C0.183115 40.8408 0 41.2904 0 41.7585C0 42.2266 0.183115 42.6761 0.510199 43.011C0.669184 43.1743 0.859271 43.304 1.06924 43.3927C1.2792 43.4813 1.5048 43.5269 1.7327 43.5269C1.9606 43.5269 2.18619 43.4813 2.39616 43.3927C2.60613 43.304 2.79621 43.1743 2.9552 43.011L22.3877 23.0722C22.729 22.7221 22.92 22.2524 22.92 21.7635C22.92 21.2745 22.729 20.8049 22.3877 20.4547L2.9552 0.515963C2.79621 0.352675 2.60613 0.222892 2.39616 0.134274C2.18619 0.0456563 1.9606 0 1.7327 0C1.5048 0 1.2792 0.0456563 1.06924 0.134274C0.859271 0.222892 0.669184 0.352675 0.510199 0.515963V0.512213Z" fill="black"/>
</svg>
