<svg width="336" height="181" viewBox="0 0 336 181" fill="none" xmlns="http://www.w3.org/2000/svg">
<path d="M321.735 49.3065C323.476 55.8039 320.976 63.2018 314.755 71.0694C308.541 78.9281 298.678 87.1704 285.895 95.3073C260.334 111.578 223.197 127.364 180.544 138.793C137.891 150.222 97.8367 155.119 67.5651 153.809C52.4262 153.153 39.7634 150.947 30.4528 147.248C21.1314 143.545 15.2669 138.388 13.526 131.891C11.785 125.394 14.2856 117.996 20.5065 110.128C26.7204 102.269 36.5833 94.027 49.3664 85.8901C74.9272 69.6196 112.064 53.8334 154.717 42.4046C197.37 30.9758 237.425 26.0786 267.696 27.3888C282.835 28.0441 295.498 30.2507 304.808 33.9496C314.13 37.6527 319.994 42.8091 321.735 49.3065Z" stroke="#4A3830" stroke-opacity="0.5"/>
<path d="M329.185 69.6438C329.924 76.3296 326.335 83.2648 318.997 90.1025C311.667 96.9323 300.673 103.59 286.807 109.703C259.082 121.925 219.986 131.921 176.096 136.775C132.207 141.63 91.8719 140.421 62.1455 134.553C47.2793 131.618 35.0952 127.524 26.4501 122.461C17.7951 117.392 12.7768 111.409 12.0373 104.724C11.2978 98.0377 14.8872 91.1024 22.2252 84.2648C29.5548 77.435 40.5497 70.777 54.4152 64.6645C82.1405 52.4418 121.236 42.4465 165.126 37.5918C209.016 32.7372 249.35 33.9467 279.077 39.8146C293.943 42.7492 306.127 46.8433 314.772 51.9061C323.427 56.9748 328.445 62.958 329.185 69.6438Z" stroke="#4A3830"/>
</svg>
