<svg width="237" height="133" viewBox="0 0 237 133" fill="none" xmlns="http://www.w3.org/2000/svg">
<path d="M226.514 36.2314C227.726 40.9213 225.99 46.2798 221.621 52.0065C217.258 57.7258 210.325 63.7329 201.328 69.6689C183.338 81.5377 157.192 93.0582 127.155 101.4C97.1188 109.742 68.9181 113.314 47.6127 112.358C36.957 111.88 28.0552 110.271 21.5174 107.579C14.9713 104.883 10.8827 101.142 9.67026 96.4525C8.4578 91.7626 10.194 86.4041 14.5628 80.6775C18.926 74.9581 25.8588 68.951 34.8562 63.015C52.8462 51.1462 78.9921 39.6257 109.029 31.284C139.065 22.9424 167.266 19.3699 188.571 20.3257C199.227 20.8037 208.129 22.4133 214.667 25.1052C221.213 27.8006 225.301 31.5414 226.514 36.2314Z" stroke="#4A3830" stroke-opacity="0.5"/>
<path d="M231.757 51.0583C232.272 55.8856 229.774 60.9112 224.621 65.8878C219.474 70.8582 211.746 75.7109 201.987 80.17C182.474 89.0859 154.949 96.3807 124.042 99.924C93.1342 103.467 64.7368 102.584 43.8154 98.3031C33.3519 96.1624 24.787 93.1777 18.7167 89.4931C12.639 85.804 9.14175 81.4657 8.62659 76.6385C8.11143 71.8113 10.6094 66.7857 15.7623 61.8091C20.9089 56.8386 28.6374 51.986 38.3966 47.5268C57.9096 38.6109 85.4343 31.3161 116.342 27.7728C147.249 24.2295 175.647 25.1133 196.568 29.3937C207.031 31.5345 215.596 34.5192 221.667 38.2037C227.744 41.8928 231.242 46.2311 231.757 51.0583Z" stroke="#4A3830"/>
</svg>
