<svg width="95" height="34" viewBox="0 0 95 34" fill="none" xmlns="http://www.w3.org/2000/svg">
<path d="M93.8147 7.02001C94.157 8.60099 93.374 10.4624 91.3903 12.5226C89.4218 14.5671 86.3623 16.7069 82.4185 18.8096C74.5373 23.0116 63.2287 27.0105 50.3635 29.7964C37.4982 32.5822 25.5484 33.6196 16.6348 33.0542C12.1745 32.7714 8.50385 32.0889 5.86587 31.0418C3.20763 29.9868 1.72471 28.6161 1.38237 27.0351C1.04003 25.4541 1.82308 23.5928 3.80675 21.5326C5.7753 19.4881 8.83477 17.3482 12.7785 15.2456C20.6598 11.0435 31.9683 7.04458 44.8336 4.25877C57.6989 1.47295 69.6487 0.43558 78.5623 1.00088C83.0226 1.28376 86.6932 1.96628 89.3312 3.01328C91.9895 4.06833 93.4724 5.43904 93.8147 7.02001Z" stroke="#8C7870"/>
</svg>
