<svg width="121" height="44" viewBox="0 0 121 44" fill="none" xmlns="http://www.w3.org/2000/svg">
<path d="M119.572 9.08512C120.026 11.18 118.982 13.6104 116.431 16.2595C113.895 18.8929 109.963 21.6417 104.905 24.338C94.7973 29.7273 80.301 34.8527 63.815 38.4225C47.3291 41.9923 32.0111 43.3229 20.5789 42.5979C14.8593 42.2351 10.1418 41.3595 6.7439 40.0109C3.32575 38.6543 1.36993 36.8734 0.916316 34.7786C0.462702 32.6837 1.50664 30.2534 4.05738 27.6042C6.593 24.9708 10.5257 22.2221 15.5829 19.5257C25.6911 14.1364 40.1874 9.01105 56.6733 5.44122C73.1593 1.87138 88.4773 0.540798 99.9094 1.26583C105.629 1.62857 110.347 2.50419 113.744 3.8528C117.163 5.20945 119.118 6.99027 119.572 9.08512Z" stroke="#8C7870"/>
</svg>
