<svg width="31" height="30" viewBox="0 0 31 30" fill="none" xmlns="http://www.w3.org/2000/svg">
<path d="M27.8891 6.76056V3.73239C27.8891 3.21596 27.6315 2.95775 27.1163 2.95775H24.1655C23.6503 2.95775 23.3927 3.21596 23.3927 3.73239V6.76056C23.3927 7.23005 23.6503 7.46479 24.1655 7.46479H27.1163C27.6315 7.46479 27.8891 7.23005 27.8891 6.76056ZM4.63387 27.0423H27.1163C27.6315 27.0423 27.8891 26.784 27.8891 26.2676V13.5211H24.7275C24.8212 14.0845 24.8681 14.5775 24.8681 15C24.8681 17.4883 23.9898 19.6127 22.2334 21.3732C20.477 23.1338 18.3575 24.0141 15.8751 24.0141C13.3927 24.0141 11.2732 23.1338 9.51678 21.3732C7.76033 19.6127 6.88211 17.4883 6.88211 15C6.88211 14.4836 6.92895 13.9906 7.02263 13.5211H3.93129V26.2676C3.93129 26.784 4.16549 27.0423 4.63387 27.0423ZM15.9102 9.01408C14.2475 9.01408 12.8306 9.60094 11.6596 10.7746C10.4887 11.9484 9.90319 13.3568 9.90319 15C9.90319 16.6432 10.4887 18.0516 11.6596 19.2254C12.8306 20.3991 14.2475 20.9859 15.9102 20.9859C17.573 20.9859 18.9898 20.3991 20.1608 19.2254C21.3318 18.0516 21.9172 16.6432 21.9172 15C21.9172 13.3568 21.3318 11.9484 20.1608 10.7746C18.9898 9.60094 17.573 9.01408 15.9102 9.01408ZM27.8891 0C28.7322 0 29.4465 0.293427 30.032 0.880282C30.6175 1.46714 30.9102 2.15962 30.9102 2.95775V27.0423C30.9102 27.8404 30.6175 28.5329 30.032 29.1197C29.4465 29.7066 28.7322 30 27.8891 30H3.93129C3.0882 30 2.37392 29.7066 1.78844 29.1197C1.20296 28.5329 0.910217 27.8404 0.910217 27.0423V2.95775C0.910217 2.15962 1.20296 1.46714 1.78844 0.880282C2.37392 0.293427 3.0882 0 3.93129 0H27.8891Z" fill="white"/>
</svg>
