<svg width="43" height="35" viewBox="0 0 43 35" fill="none" xmlns="http://www.w3.org/2000/svg">
<path d="M38.3438 5.44141H31.8359L30.2855 1.09648C30.1784 0.799174 29.9821 0.54218 29.7235 0.360612C29.4648 0.179043 29.1564 0.0817525 28.8404 0.0820319H14.1596C13.5136 0.0820319 12.9346 0.48877 12.7192 1.09648L11.1641 5.44141H4.65625C2.54121 5.44141 0.828125 7.15449 0.828125 9.26953V31.0898C0.828125 33.2049 2.54121 34.918 4.65625 34.918H38.3438C40.4588 34.918 42.1719 33.2049 42.1719 31.0898V9.26953C42.1719 7.15449 40.4588 5.44141 38.3438 5.44141ZM21.5 27.2617C17.2699 27.2617 13.8438 23.8355 13.8438 19.6055C13.8438 15.3754 17.2699 11.9492 21.5 11.9492C25.7301 11.9492 29.1562 15.3754 29.1562 19.6055C29.1562 23.8355 25.7301 27.2617 21.5 27.2617ZM16.9062 19.6055C16.9062 20.8238 17.3902 21.9922 18.2517 22.8537C19.1132 23.7152 20.2817 24.1992 21.5 24.1992C22.7183 24.1992 23.8868 23.7152 24.7483 22.8537C25.6098 21.9922 26.0937 20.8238 26.0938 19.6055C26.0937 18.3871 25.6098 17.2187 24.7483 16.3572C23.8868 15.4957 22.7183 15.0117 21.5 15.0117C20.2817 15.0117 19.1132 15.4957 18.2517 16.3572C17.3902 17.2187 16.9062 18.3871 16.9062 19.6055Z" fill="#8C7870"/>
</svg>
