<svg width="32" height="31" viewBox="0 0 32 31" fill="none" xmlns="http://www.w3.org/2000/svg">
<path d="M30.9152 25.2576L26.1678 20.5101C24.8351 19.1775 22.6745 19.1775 21.3418 20.5101L20.5991 21.2529C20.0014 21.8492 19.586 22.6035 19.4018 23.4275C17.7926 23.4576 15.9728 23.1839 14.4163 22.1741C13.4602 21.4635 12.5574 20.6839 11.7151 19.8416C11.0035 19.1304 10.3363 18.3762 9.71721 17.5832C8.50414 15.9534 8.18402 13.9756 8.21639 12.2422C9.04037 12.058 9.79473 11.6426 10.391 11.0449L11.1338 10.3021C12.4664 8.9695 12.4664 6.80888 11.1338 5.47619L6.38633 0.728752C5.49789 -0.159686 4.05746 -0.159686 3.16908 0.728752L2.35402 1.544C1.30914 2.58888 0.774268 3.94975 0.746456 5.31906C0.478893 8.20813 1.03221 11.3885 2.34664 14.5164C3.21452 16.5817 4.40608 18.5983 5.85727 20.4726C5.87558 20.4971 5.89296 20.5219 5.91152 20.5464L5.91364 20.5448C6.65455 21.4952 7.45338 22.3991 8.30558 23.2513C9.18633 24.1326px 10.1221 24.9573 11.1073 25.7202L11.0978 25.7328C11.2619 25.8572 11.4293 25.9773 11.5998 26.0928C15.7411 29.1559 20.422 30.8769 24.7778 30.8766C25.0322 30.8766 25.2858 30.8693 25.5381 30.8575C27.1605 31.0569 28.8546 30.5355 30.1001 29.2901L30.9153 28.4749C31.8036 27.5864 31.8036 26.146 30.9152 25.2576Z" fill="#8C7870"/>
</svg>
