<svg width="33" height="21" viewBox="0 0 33 21" fill="none" xmlns="http://www.w3.org/2000/svg">
<path fill-rule="evenodd" clip-rule="evenodd" d="M32.2352 2.1785C32.4634 1.42775 32.2352 0.875 31.1421 0.875H27.5327C26.6142 0.875 26.1907 1.35213 25.9611 1.87875C25.9611 1.87875 24.1254 6.27325 21.5253 9.12775C20.6838 9.9555 20.3016 10.2181 19.8423 10.2181C19.6127 10.2181 19.2676 9.9555 19.2676 9.20337V2.1785C19.2676 1.2765 19.0146 0.875 18.2501 0.875H12.5741C12.0007 0.875 11.6556 1.293 11.6556 1.69037C11.6556 2.54425 12.9563 2.74225 13.0897 5.14575V10.368C13.0897 11.5134 12.8793 11.721 12.42 11.721C11.1963 11.721 8.21943 7.30587 6.45255 2.25412C6.11018 1.271 5.76368 0.875 4.84105 0.875H1.22892C0.197675 0.875 -0.00857544 1.35213 -0.00857544 1.87875C-0.00857544 2.8165 1.21517 7.475 5.6908 13.6364C8.67455 17.8439 12.8752 20.125 16.7018 20.125C18.9967 20.125 19.2799 19.619 19.2799 18.7459V15.5655C19.2799 14.5521 19.4972 14.35 20.2246 14.35C20.7608 14.35 21.6779 14.614 23.8202 16.6421C26.2677 19.047 26.6706 20.125 28.0483 20.125H31.6577C32.6889 20.125 33.2059 19.619 32.9089 18.618C32.5817 17.6225 31.4129 16.1774 29.8633 14.4627C29.0218 13.4865 27.7596 12.4346 27.3759 11.908C26.8411 11.2329 26.9937 10.9317 27.3759 10.3309C27.3759 10.3309 31.7759 4.24513 32.2338 2.1785H32.2352Z" fill="black"/>
</svg>
