<svg width="33" height="21" viewBox="0 0 33 21" fill="none" xmlns="http://www.w3.org/2000/svg">
<path fill-rule="evenodd" clip-rule="evenodd" d="M32.2438 2.1785C32.472 1.42775 32.2438 0.875 31.1506 0.875H27.5413C26.6228 0.875 26.1993 1.35213 25.9696 1.87875C25.9696 1.87875 24.134 6.27325 21.5339 9.12775C20.6924 9.9555 20.3101 10.2181 19.8509 10.2181C19.6213 10.2181 19.2761 9.9555 19.2761 9.20338V2.1785C19.2761 1.2765 19.0231 0.875 18.2586 0.875H12.5826C12.0093 0.875 11.6641 1.293 11.6641 1.69037C11.6641 2.54425 12.9649 2.74225 13.0983 5.14575V10.368C13.0983 11.5134 12.8879 11.721 12.4286 11.721C11.2049 11.721 8.228 7.30587 6.46113 2.25412C6.11875 1.271 5.77225 0.875 4.84963 0.875H1.2375C0.20625 0.875 0 1.35213 0 1.87875C0 2.8165 1.22375 7.475 5.69938 13.6364C8.68313 17.8439 12.8838 20.125 16.7104 20.125C19.0053 20.125 19.2885 19.619 19.2885 18.7459V15.5655C19.2885 14.5521 19.5058 14.35 20.2331 14.35C20.7694 14.35 21.6865 14.614 23.8288 16.6421C26.2763 19.047 26.6791 20.125 28.0569 20.125H31.6663C32.6975 20.125 33.2145 19.619 32.9175 18.618C32.5903 17.6225 31.4215 16.1774 29.8719 14.4627C29.0304 13.4865 27.7681 12.4346 27.3845 11.908C26.8496 11.2329 27.0023 10.9317 27.3845 10.3309C27.3845 10.3309 31.7845 4.24512 32.2424 2.1785H32.2438Z" fill="#8C7870"/>
</svg>
