<svg width="33" height="33" viewBox="0 0 33 33" fill="none" xmlns="http://www.w3.org/2000/svg">
<path fill-rule="evenodd" clip-rule="evenodd" d="M23.937 19.7752C23.5273 19.5704 21.5184 18.5831 21.1444 18.4456C20.7704 18.3095 20.4982 18.2421 20.2246 18.6519C19.9523 19.0589 19.1699 19.9801 18.932 20.2524C18.6928 20.526 18.4549 20.559 18.0465 20.3555C17.6382 20.1492 16.3209 19.7189 14.7603 18.3274C13.5462 17.2439 12.7253 15.906 12.4874 15.4962C12.2495 15.0879 12.4613 14.8665 12.6662 14.663C12.8504 14.4801 13.0745 14.1859 13.2794 13.948C13.4843 13.7087 13.5517 13.5382 13.6878 13.2646C13.8253 12.9924 13.7565 12.7545 13.6534 12.5496C13.5517 12.3447 12.7349 10.3331 12.3939 9.51499C12.0626 8.71887 11.7257 8.82749 11.4754 8.81374C11.2362 8.80274 10.9639 8.79999 10.6917 8.79999C10.4194 8.79999 9.97667 8.90174 9.60267 9.31149C9.2273 9.71987 8.17267 10.7085 8.17267 12.7201C8.17267 14.7304 9.63567 16.6732 9.84055 16.9469C10.0454 17.2191 12.7212 21.3469 16.82 23.1165C17.7963 23.5372 18.5567 23.7889 19.1493 23.9759C20.1283 24.288 21.0193 24.244 21.7233 24.1381C22.507 24.0212 24.1406 23.1495 24.4816 22.1952C24.8212 21.241 24.8212 20.4229 24.7194 20.2524C24.6177 20.0819 24.3454 19.9801 23.9357 19.7752H23.937ZM16.4818 29.9544H16.4763C14.0418 29.9548 11.6519 29.3004 9.5573 28.0596L9.0623 27.7654L3.91705 29.1156L5.29067 24.0996L4.96755 23.5854C3.60649 21.4188 2.8862 18.9114 2.88992 16.3529C2.89267 8.85912 8.98942 2.76237 16.4873 2.76237C20.1173 2.76237 23.5301 4.17862 26.0958 6.74712C27.3613 8.00742 28.3644 9.50615 29.0469 11.1566C29.7295 12.8071 30.078 14.5765 30.0723 16.3625C30.0696 23.8562 23.9728 29.9544 16.4818 29.9544ZM28.0483 4.79599C26.5333 3.27101 24.7307 2.06186 22.745 1.2386C20.7593 0.415333 18.63 -0.00566587 16.4804 -4.69103e-06C7.46867 -4.69103e-06 0.131675 7.33562 0.128925 16.3515C0.124749 19.2208 0.877439 22.0404 2.31105 24.5259L-0.00857544 33L8.65942 30.7257C11.0573 32.0322 13.7443 32.7167 16.4749 32.7167H16.4818C25.4935 32.7167 32.8306 25.3811 32.8333 16.3639C32.8399 14.2151 32.4205 12.0864 31.5991 10.1008C30.7778 8.1152 29.5709 6.31217 28.0483 4.79599Z" fill="#8C7870"/>
</svg>
