<svg width="50" height="50" viewBox="0 0 50 50" fill="none" xmlns="http://www.w3.org/2000/svg">
<path d="M49.4999 7.5H42.4999V0.5H38.9999V7.5H31.9999V11H38.9999V18H42.4999V11H49.4999V7.5ZM38.9999 47.0255L28.5437 36.5693C31.0638 33.4166 32.2811 29.4185 31.9453 25.3964C31.6096 21.3742 29.7464 17.6333 26.7384 14.9421C23.7305 12.2509 19.8061 10.8137 15.7715 10.9257C11.7369 11.0377 7.89841 12.6905 5.04442 15.5445C2.19043 18.3985 0.537674 22.237 0.425645 26.2716C0.313617 30.3062 1.75082 34.2305 4.44204 37.2385C7.13326 40.2464 10.8742 42.1097 14.8963 42.4454C18.9185 42.7811 22.9165 41.5639 26.0692 39.0438L36.5254 49.5L38.9999 47.0255ZM3.99994 26.75C3.99994 24.3272 4.71839 21.9588 6.06444 19.9443C7.41049 17.9298 9.32368 16.3596 11.5621 15.4325C13.8005 14.5053 16.2635 14.2627 18.6398 14.7354C21.0161 15.208 23.1988 16.3747 24.912 18.0879C26.6252 19.8011 27.7919 21.9839 28.2646 24.3601C28.7372 26.7364 28.4946 29.1995 27.5675 31.4379C26.6403 33.6763 25.0702 35.5895 23.0557 36.9355C21.0412 38.2816 18.6728 39 16.2499 39C13.0022 38.9963 9.88849 37.7045 7.59198 35.408C5.29546 33.1114 4.00365 29.9978 3.99994 26.75Z" fill="white"/>
</svg>
